ffmpeg version 7.1.1-1+b1 Copyright (c) 2000-2025 the FFmpeg developers
  built with gcc 14 (Debian 14.2.0-18)
  configuration: --prefix=/usr --extra-version=1+b1 --toolchain=hardened --libdir=/usr/lib/aarch64-linux-gnu --incdir=/usr/include/aarch64-linux-gnu --arch=arm64 --enable-gpl --disable-stripping --disable-libmfx --disable-omx --enable-gnutls --enable-libaom --enable-libass --enable-libbs2b --enable-libcdio --enable-libcodec2 --enable-libdav1d --enable-libflite --enable-libfontconfig --enable-libfreetype --enable-libfribidi --enable-libglslang --enable-libgme --enable-libgsm --enable-libharfbuzz --enable-libmp3lame --enable-libmysofa --enable-libopenjpeg --enable-libopenmpt --enable-libopus --enable-librubberband --enable-libshine --enable-libsnappy --enable-libsoxr --enable-libspeex --enable-libtheora --enable-libtwolame --enable-libvidstab --enable-libvorbis --enable-libvpx --enable-libwebp --enable-libx265 --enable-libxml2 --enable-libxvid --enable-libzimg --enable-openal --enable-opencl --enable-opengl --disable-sndio --disable-libvpl --enable-libdc1394 --enable-libdrm --enable-libiec61883 --enable-chromaprint --enable-frei0r --enable-ladspa --enable-libbluray --enable-libcaca --enable-libdvdnav --enable-libdvdread --enable-libjack --enable-libpulse --enable-librabbitmq --enable-librist --enable-libsrt --enable-libssh --enable-libsvtav1 --enable-libx264 --enable-libzmq --enable-libzvbi --enable-lv2 --enable-sdl2 --enable-libplacebo --enable-librav1e --enable-pocketsphinx --enable-librsvg --enable-libjxl --enable-shared
  libavutil      59. 39.100 / 59. 39.100
  libavcodec     61. 19.101 / 61. 19.101
  libavformat    61.  7.100 / 61.  7.100
  libavdevice    61.  3.100 / 61.  3.100
  libavfilter    10.  4.100 / 10.  4.100
  libswscale      8.  3.100 /  8.  3.100
  libswresample   5.  3.100 /  5.  3.100
  libpostproc    58.  3.100 / 58.  3.100
Input #0, mov,mp4,m4a,3gp,3g2,mj2, from '/app/media/video/source/IMG_0997_копия_prIqBIw.mp4':
  Metadata:
    major_brand     : isom
    minor_version   : 512
    compatible_brands: isomiso2avc1mp41
  Duration: 00:00:58.97, start: 0.000000, bitrate: 7498 kb/s
  Stream #0:0[0x1](und): Video: h264 (High) (avc1 / 0x31637661), yuv420p(tv, bt709, progressive), 1920x858, 7360 kb/s, 30 fps, 30 tbr, 15360 tbn (default)
      Metadata:
        handler_name    : Core Media Video
        vendor_id       : [0][0][0][0]
        encoder         : Lavc61.3.100 libx264
  Stream #0:1[0x2](und): Audio: aac (LC) (mp4a / 0x6134706D), 44100 Hz, stereo, fltp, 128 kb/s (default)
      Metadata:
        handler_name    : Core Media Audio
        vendor_id       : [0][0][0][0]
Stream mapping:
  Stream #0:0 -> #0:0 (h264 (native) -> h264 (libx264))
  Stream #0:1 -> #0:1 (aac (native) -> aac (native))
Press [q] to stop, [?] for help
[libx264 @ 0xaaaac1271220] using cpu capabilities: ARMv8 NEON
[libx264 @ 0xaaaac1271220] profile High, level 4.1, 4:2:0, 8-bit
[libx264 @ 0xaaaac1271220] 264 - core 164 r3108 31e19f9 - H.264/MPEG-4 AVC codec - Copyleft 2003-2023 - http://www.videolan.org/x264.html - options: cabac=1 ref=1 deblock=1:0:0 analyse=0x3:0x113 me=hex subme=2 psy=1 psy_rd=1.00:0.00 mixed_ref=0 me_range=16 chroma_me=1 trellis=0 8x8dct=1 cqm=0 deadzone=21,11 fast_pskip=1 chroma_qp_offset=0 threads=12 lookahead_threads=4 sliced_threads=0 nr=0 decimate=1 interlaced=0 bluray_compat=0 constrained_intra=0 bframes=3 b_pyramid=2 b_adapt=1 b_bias=0 direct=1 weightb=1 open_gop=0 weightp=1 keyint=60 keyint_min=31 scenecut=0 intra_refresh=0 rc_lookahead=10 rc=crf mbtree=1 crf=23.0 qcomp=0.60 qpmin=0 qpmax=69 qpstep=4 ip_ratio=1.40 aq=1:1.00
[hls @ 0xaaaac1287720] Opening '/app/media/video/4dbd3c0f-1743-41c9-919a-fb1c1baac76d/init.mp4' for writing
Output #0, hls, to '/app/media/video/4dbd3c0f-1743-41c9-919a-fb1c1baac76d/master.m3u8':
  Metadata:
    major_brand     : isom
    minor_version   : 512
    compatible_brands: isomiso2avc1mp41
    encoder         : Lavf61.7.100
  Stream #0:0(und): Video: h264, yuv420p(tv, bt709, progressive), 1920x858, q=2-31, 30 fps, 15360 tbn (default)
      Metadata:
        handler_name    : Core Media Video
        vendor_id       : [0][0][0][0]
        encoder         : Lavc61.19.101 libx264
      Side data:
        cpb: bitrate max/min/avg: 0/0/0 buffer size: 0 vbv_delay: N/A
  Stream #0:1(und): Audio: aac (LC), 48000 Hz, stereo, fltp, 160 kb/s (default)
      Metadata:
        handler_name    : Core Media Audio
        vendor_id       : [0][0][0][0]
        encoder         : Lavc61.19.101 aac
frame=    0 fps=0.0 q=0.0 size=N/A time=N/A bitrate=N/A speed=N/A    frame=   24 fps= 24 q=29.0 size=N/A time=00:00:00.73 bitrate=N/A speed=0.729x    frame=   49 fps= 32 q=29.0 size=N/A time=00:00:01.56 bitrate=N/A speed=1.04x    frame=   66 fps= 33 q=29.0 size=N/A time=00:00:02.13 bitrate=N/A speed=1.06x    frame=   79 fps= 31 q=29.0 size=N/A time=00:00:02.56 bitrate=N/A speed=1.02x    frame=  102 fps= 34 q=29.0 size=N/A time=00:00:03.33 bitrate=N/A speed=1.11x    [hls @ 0xaaaac1287720] Opening '/app/media/video/4dbd3c0f-1743-41c9-919a-fb1c1baac76d/chunk_00000.m4s' for writing
frame=  134 fps= 38 q=29.0 size=N/A time=00:00:04.40 bitrate=N/A speed=1.25x    frame=  166 fps= 41 q=29.0 size=N/A time=00:00:05.46 bitrate=N/A speed=1.36x    frame=  199 fps= 44 q=29.0 size=N/A time=00:00:06.56 bitrate=N/A speed=1.45x    frame=  227 fps= 45 q=29.0 size=N/A time=00:00:07.50 bitrate=N/A speed=1.49x    [hls @ 0xaaaac1287720] Opening '/app/media/video/4dbd3c0f-1743-41c9-919a-fb1c1baac76d/chunk_00001.m4s' for writing
frame=  258 fps= 47 q=29.0 size=N/A time=00:00:08.53 bitrate=N/A speed=1.55x    frame=  289 fps= 48 q=29.0 size=N/A time=00:00:09.56 bitrate=N/A speed=1.59x    frame=  325 fps= 50 q=29.0 size=N/A time=00:00:10.76 bitrate=N/A speed=1.65x    frame=  361 fps= 51 q=29.0 size=N/A time=00:00:11.96 bitrate=N/A speed= 1.7x    [hls @ 0xaaaac1287720] Opening '/app/media/video/4dbd3c0f-1743-41c9-919a-fb1c1baac76d/chunk_00002.m4s' for writing
frame=  393 fps= 52 q=29.0 size=N/A time=00:00:13.03 bitrate=N/A speed=1.73x    frame=  429 fps= 53 q=29.0 size=N/A time=00:00:14.23 bitrate=N/A speed=1.77x    frame=  465 fps= 54 q=29.0 size=N/A time=00:00:15.43 bitrate=N/A speed=1.81x    [hls @ 0xaaaac1287720] Opening '/app/media/video/4dbd3c0f-1743-41c9-919a-fb1c1baac76d/chunk_00003.m4s' for writing
frame=  501 fps= 55 q=29.0 size=N/A time=00:00:16.63 bitrate=N/A speed=1.84x    frame=  534 fps= 56 q=29.0 size=N/A time=00:00:17.73 bitrate=N/A speed=1.86x    frame=  569 fps= 57 q=29.0 size=N/A time=00:00:18.90 bitrate=N/A speed=1.88x    [hls @ 0xaaaac1287720] Opening '/app/media/video/4dbd3c0f-1743-41c9-919a-fb1c1baac76d/chunk_00004.m4s' for writing
frame=  605 fps= 57 q=29.0 size=N/A time=00:00:20.10 bitrate=N/A speed=1.91x    frame=  634 fps= 57 q=29.0 size=N/A time=00:00:21.06 bitrate=N/A speed=1.91x    frame=  667 fps= 58 q=29.0 size=N/A time=00:00:22.16 bitrate=N/A speed=1.92x    frame=  696 fps= 58 q=29.0 size=N/A time=00:00:23.13 bitrate=N/A speed=1.92x    [hls @ 0xaaaac1287720] Opening '/app/media/video/4dbd3c0f-1743-41c9-919a-fb1c1baac76d/chunk_00005.m4s' for writing
frame=  724 fps= 58 q=29.0 size=N/A time=00:00:24.06 bitrate=N/A speed=1.92x    frame=  753 fps= 58 q=29.0 size=N/A time=00:00:25.03 bitrate=N/A speed=1.92x    frame=  778 fps= 57 q=29.0 size=N/A time=00:00:25.86 bitrate=N/A speed=1.91x    frame=  806 fps= 57 q=29.0 size=N/A time=00:00:26.80 bitrate=N/A speed=1.91x    frame=  826 fps= 57 q=29.0 size=N/A time=00:00:27.46 bitrate=N/A speed=1.89x    [hls @ 0xaaaac1287720] Opening '/app/media/video/4dbd3c0f-1743-41c9-919a-fb1c1baac76d/chunk_00006.m4s' for writing
frame=  853 fps= 57 q=29.0 size=N/A time=00:00:28.36 bitrate=N/A speed=1.88x    frame=  874 fps= 56 q=29.0 size=N/A time=00:00:29.06 bitrate=N/A speed=1.87x    frame=  904 fps= 56 q=29.0 size=N/A time=00:00:30.06 bitrate=N/A speed=1.87x    frame=  931 fps= 56 q=29.0 size=N/A time=00:00:30.96 bitrate=N/A speed=1.87x    frame=  959 fps= 56 q=29.0 size=N/A time=00:00:31.90 bitrate=N/A speed=1.87x    [hls @ 0xaaaac1287720] Opening '/app/media/video/4dbd3c0f-1743-41c9-919a-fb1c1baac76d/chunk_00007.m4s' for writing
frame=  979 fps= 56 q=29.0 size=N/A time=00:00:32.56 bitrate=N/A speed=1.85x    frame= 1006 fps= 56 q=29.0 size=N/A time=00:00:33.46 bitrate=N/A speed=1.85x    frame= 1030 fps= 55 q=29.0 size=N/A time=00:00:34.26 bitrate=N/A speed=1.84x    frame= 1056 fps= 55 q=29.0 size=N/A time=00:00:35.13 bitrate=N/A speed=1.84x    frame= 1073 fps= 55 q=29.0 size=N/A time=00:00:35.70 bitrate=N/A speed=1.82x    [hls @ 0xaaaac1287720] Opening '/app/media/video/4dbd3c0f-1743-41c9-919a-fb1c1baac76d/chunk_00008.m4s' for writing
frame= 1103 fps= 55 q=29.0 size=N/A time=00:00:36.70 bitrate=N/A speed=1.82x    frame= 1118 fps= 54 q=29.0 size=N/A time=00:00:37.20 bitrate=N/A speed= 1.8x    frame= 1128 fps= 53 q=29.0 size=N/A time=00:00:37.53 bitrate=N/A speed=1.77x    frame= 1131 fps= 52 q=29.0 size=N/A time=00:00:37.63 bitrate=N/A speed=1.73x    frame= 1134 fps= 51 q=29.0 size=N/A time=00:00:37.73 bitrate=N/A speed=1.69x    frame= 1136 fps= 50 q=29.0 size=N/A time=00:00:37.83 bitrate=N/A speed=1.66x    frame= 1148 fps= 49 q=29.0 size=N/A time=00:00:38.20 bitrate=N/A speed=1.64x    frame= 1158 fps= 49 q=29.0 size=N/A time=00:00:38.53 bitrate=N/A speed=1.62x    frame= 1172 fps= 48 q=29.0 size=N/A time=00:00:39.00 bitrate=N/A speed= 1.6x    frame= 1194 fps= 48 q=29.0 size=N/A time=00:00:39.73 bitrate=N/A speed= 1.6x    [hls @ 0xaaaac1287720] Opening '/app/media/video/4dbd3c0f-1743-41c9-919a-fb1c1baac76d/chunk_00009.m4s' for writing
frame= 1227 fps= 48 q=29.0 size=N/A time=00:00:40.83 bitrate=N/A speed=1.61x    frame= 1256 fps= 49 q=29.0 size=N/A time=00:00:41.80 bitrate=N/A speed=1.62x    frame= 1289 fps= 49 q=29.0 size=N/A time=00:00:42.90 bitrate=N/A speed=1.63x    frame= 1321 fps= 49 q=29.0 size=N/A time=00:00:43.96 bitrate=N/A speed=1.64x    [hls @ 0xaaaac1287720] Opening '/app/media/video/4dbd3c0f-1743-41c9-919a-fb1c1baac76d/chunk_00010.m4s' for writing
frame= 1353 fps= 50 q=29.0 size=N/A time=00:00:45.06 bitrate=N/A speed=1.65x    frame= 1374 fps= 49 q=29.0 size=N/A time=00:00:45.73 bitrate=N/A speed=1.64x    frame= 1398 fps= 49 q=29.0 size=N/A time=00:00:46.53 bitrate=N/A speed=1.64x    frame= 1425 fps= 49 q=29.0 size=N/A time=00:00:47.43 bitrate=N/A speed=1.64x    [hls @ 0xaaaac1287720] Opening '/app/media/video/4dbd3c0f-1743-41c9-919a-fb1c1baac76d/chunk_00011.m4s' for writing
frame= 1449 fps= 49 q=29.0 size=N/A time=00:00:48.23 bitrate=N/A speed=1.64x    frame= 1477 fps= 49 q=29.0 size=N/A time=00:00:49.16 bitrate=N/A speed=1.65x    frame= 1503 fps= 50 q=29.0 size=N/A time=00:00:50.03 bitrate=N/A speed=1.65x    frame= 1527 fps= 49 q=29.0 size=N/A time=00:00:50.83 bitrate=N/A speed=1.65x    frame= 1554 fps= 50 q=29.0 size=N/A time=00:00:51.73 bitrate=N/A speed=1.65x    [hls @ 0xaaaac1287720] Opening '/app/media/video/4dbd3c0f-1743-41c9-919a-fb1c1baac76d/chunk_00012.m4s' for writing
frame= 1583 fps= 50 q=29.0 size=N/A time=00:00:52.70 bitrate=N/A speed=1.65x    frame= 1602 fps= 49 q=29.0 size=N/A time=00:00:53.33 bitrate=N/A speed=1.65x    frame= 1626 fps= 49 q=29.0 size=N/A time=00:00:54.13 bitrate=N/A speed=1.65x    frame= 1656 fps= 50 q=29.0 size=N/A time=00:00:55.13 bitrate=N/A speed=1.65x    [hls @ 0xaaaac1287720] Opening '/app/media/video/4dbd3c0f-1743-41c9-919a-fb1c1baac76d/chunk_00013.m4s' for writing
frame= 1688 fps= 50 q=29.0 size=N/A time=00:00:56.20 bitrate=N/A speed=1.66x    frame= 1717 fps= 50 q=29.0 size=N/A time=00:00:57.16 bitrate=N/A speed=1.66x    frame= 1748 fps= 50 q=29.0 size=N/A time=N/A bitrate=N/A speed=N/A    [hls @ 0xaaaac1287720] Opening '/app/media/video/4dbd3c0f-1743-41c9-919a-fb1c1baac76d/chunk_00014.m4s' for writing
[out#0/hls @ 0xaaaac1286340] video:44200KiB audio:1159KiB subtitle:0KiB other streams:0KiB global headers:0KiB muxing overhead: unknown
frame= 1769 fps= 50 q=-1.0 Lsize=N/A time=00:00:58.90 bitrate=N/A speed=1.68x    
[libx264 @ 0xaaaac1271220] frame I:30    Avg QP:21.56  size:156954
[libx264 @ 0xaaaac1271220] frame P:604   Avg QP:24.30  size: 49078
[libx264 @ 0xaaaac1271220] frame B:1135  Avg QP:25.69  size:  9610
[libx264 @ 0xaaaac1271220] consecutive B-frames:  6.7% 20.6%  7.8% 64.9%
[libx264 @ 0xaaaac1271220] mb I  I16..4: 18.7% 34.6% 46.7%
[libx264 @ 0xaaaac1271220] mb P  I16..4: 12.2% 20.5%  4.9%  P16..4: 28.4% 13.4%  9.5%  0.0%  0.0%    skip:11.1%
[libx264 @ 0xaaaac1271220] mb B  I16..4:  2.0%  2.4%  0.1%  B16..8: 20.7%  6.2%  1.1%  direct: 6.0%  skip:61.5%  L0:44.6% L1:42.3% BI:13.1%
[libx264 @ 0xaaaac1271220] 8x8 transform intra:52.4% inter:35.8%
[libx264 @ 0xaaaac1271220] coded y,uvDC,uvAC intra: 49.7% 53.7% 17.9% inter: 11.0% 14.7% 0.9%
[libx264 @ 0xaaaac1271220] i16 v,h,dc,p: 45% 25% 23%  7%
[libx264 @ 0xaaaac1271220] i8 v,h,dc,ddl,ddr,vr,hd,vl,hu: 20% 22% 30%  3%  6%  4%  5%  4%  6%
[libx264 @ 0xaaaac1271220] i4 v,h,dc,ddl,ddr,vr,hd,vl,hu: 19% 21% 15%  4% 11%  7%  8%  6%  9%
[libx264 @ 0xaaaac1271220] i8c dc,h,v,p: 52% 22% 21%  5%
[libx264 @ 0xaaaac1271220] Weighted P-Frames: Y:2.2% UV:1.7%
[libx264 @ 0xaaaac1271220] kb/s:6140.38
[aac @ 0xaaaac13ab530] Qavg: 549.190
